<svg width="24" height="20" viewBox="0 0 24 20" fill="none" xmlns="http://www.w3.org/2000/svg">
<path d="M19.0001 19H20.0105C20.9817 19 21.4673 19 21.7349 18.7975C21.9681 18.6211 22.1124 18.3515 22.1298 18.0596C22.1498 17.7246 21.8805 17.3205 21.3418 16.5125L18.3314 11.9969C17.8863 11.3292 17.6637 10.9954 17.3832 10.8791C17.138 10.7773 16.8623 10.7773 16.6171 10.8791C16.3365 10.9954 16.114 11.3292 15.6689 11.9969L14.9247 13.1132M19.0001 19L11.3156 7.90018C10.8737 7.26182 10.6527 6.94264 10.3767 6.83044C10.1353 6.73228 9.86502 6.73228 9.62356 6.83044C9.34754 6.94264 9.12657 7.26182 8.68463 7.90018L2.73834 16.4893C2.17531 17.3025 1.8938 17.7092 1.90983 18.0473C1.92379 18.3419 2.06701 18.6152 2.30121 18.7943C2.57014 19 3.06471 19 4.05385 19H19.0001ZM21.0001 4C21.0001 5.65685 19.657 7 18.0001 7C16.3433 7 15.0001 5.65685 15.0001 4C15.0001 2.34315 16.3433 1 18.0001 1C19.657 1 21.0001 2.34315 21.0001 4Z" stroke="black" stroke-width="2" stroke-linecap="round" stroke-linejoin="round"/>
</svg>
