<svg width="22" height="20" viewBox="0 0 22 20" fill="none" xmlns="http://www.w3.org/2000/svg">
<path d="M18.7479 3C20.1652 4.97024 21 7.38764 21 10C21 12.6124 20.1652 15.0298 18.7479 17M14.7453 6C15.5362 7.13384 16 8.51275 16 10C16 11.4873 15.5362 12.8662 14.7453 14M8.63432 2.36569L5.46863 5.53137C5.29568 5.70433 5.2092 5.7908 5.10828 5.85264C5.01881 5.90747 4.92127 5.94788 4.81923 5.97237C4.70414 6 4.58185 6 4.33726 6H2.6C2.03995 6 1.75992 6 1.54601 6.109C1.35785 6.20487 1.20487 6.35785 1.10899 6.54601C1 6.75992 1 7.03995 1 7.6V12.4C1 12.9601 1 13.2401 1.10899 13.454C1.20487 13.6422 1.35785 13.7951 1.54601 13.891C1.75992 14 2.03995 14 2.6 14H4.33726C4.58185 14 4.70414 14 4.81923 14.0276C4.92127 14.0521 5.01881 14.0925 5.10828 14.1474C5.2092 14.2092 5.29568 14.2957 5.46863 14.4686L8.63431 17.6343C9.06269 18.0627 9.27688 18.2769 9.46077 18.2914C9.62033 18.3039 9.77626 18.2393 9.8802 18.1176C10 17.9774 10 17.6744 10 17.0686V2.93137C10 2.32556 10 2.02265 9.8802 1.88239C9.77626 1.76068 9.62033 1.69609 9.46077 1.70865C9.27688 1.72312 9.06269 1.93731 8.63432 2.36569Z" stroke="black" stroke-width="2" stroke-linecap="round" stroke-linejoin="round"/>
</svg>
